<?xml version="1.0" encoding="utf-8"?>
<svg width="8" height="8" viewBox="0 0 8 8" fill="none" stroke="none" version="1.1" xmlns:xlink="http://www.w3.org/1999/xlink" xmlns="http://www.w3.org/2000/svg">
  <defs>
    <path id="path_1" d="M8 0L8 0L8 8L0 8L0 0L8 0Z" />
    <rect id="rect_2" x="0" y="0" width="8" height="8" />
    <clipPath id="clip_path_3">
      <use xlink:href="#rect_2" />
    </clipPath>
  </defs>
  <g id="Frame" opacity="1" clip-path="url(#clip_path_3)">
    <g>
      <use xlink:href="#path_1" style="mix-blend-mode:normal;" />
      <g>
        <rect id="Rectangle" width="1" height="4" style="fill:#3F3F74;fill-rule:evenodd;mix-blend-mode:normal;" />
        <rect id="Rectangle" width="3" height="1" style="fill:#3F3F74;fill-rule:evenodd;mix-blend-mode:normal;" transform="translate(1 0)" />
        <rect id="Rectangle" width="1" height="3" style="fill:#3F3F74;fill-rule:evenodd;mix-blend-mode:normal;" transform="translate(2 1)" />
        <rect id="Rectangle" width="1" height="4" style="fill:#3F3F74;fill-rule:evenodd;mix-blend-mode:normal;" transform="translate(4 0)" />
        <rect id="Rectangle" width="1" height="4" style="fill:#AC3232;fill-rule:evenodd;mix-blend-mode:normal;" transform="translate(5 0)" />
        <rect id="Rectangle" width="2" height="1" style="fill:#AC3232;fill-rule:evenodd;mix-blend-mode:normal;" transform="translate(6 0)" />
        <rect id="Rectangle" width="1" height="1" style="fill:#AC3232;fill-rule:evenodd;mix-blend-mode:normal;" transform="translate(6 2)" />
        <rect id="Rectangle" width="1" height="3" style="fill:#AC3232;fill-rule:evenodd;mix-blend-mode:normal;" transform="translate(7 1)" />
        <rect id="Rectangle" width="3" height="1" style="fill:#6ABE30;fill-rule:evenodd;mix-blend-mode:normal;" transform="translate(2 4)" />
        <rect id="Rectangle" width="3" height="1" style="fill:#6ABE30;fill-rule:evenodd;mix-blend-mode:normal;" transform="translate(0 7)" />
        <rect id="Rectangle" width="1" height="3" style="fill:#6ABE30;fill-rule:evenodd;mix-blend-mode:normal;" transform="translate(0 4)" />
        <rect id="Rectangle" width="1" height="2" style="fill:#6ABE30;fill-rule:evenodd;mix-blend-mode:normal;" transform="translate(2 5)" />
        <rect id="Rectangle" width="1" height="3" style="fill:#6ABE30;fill-rule:evenodd;mix-blend-mode:normal;" transform="translate(4 5)" />
        <rect id="Rectangle" width="3" height="1" style="fill:#FBF236;fill-rule:evenodd;mix-blend-mode:normal;" transform="translate(5 4)" />
        <rect id="Rectangle" width="1" height="3" style="fill:#FBF236;fill-rule:evenodd;mix-blend-mode:normal;" transform="translate(6 5)" />
      </g>
    </g>
  </g>
</svg>